<svg id="visual" viewBox="0 0 960 540" width="960" height="540" xmlns="http://www.w3.org/2000/svg" xmlns:xlink="http://www.w3.org/1999/xlink" version="1.1"><rect x="0" y="0" width="960" height="540" fill="#add8e6"></rect><path d="M0 467L32 471.5C64 476 128 485 192 492C256 499 320 504 384 501.5C448 499 512 489 576 483.5C640 478 704 477 768 481.2C832 485.3 896 494.7 928 499.3L960 504L960 541L928 541C896 541 832 541 768 541C704 541 640 541 576 541C512 541 448 541 384 541C320 541 256 541 192 541C128 541 64 541 32 541L0 541Z" fill="#FFFFFF" stroke-linecap="round" stroke-linejoin="miter"></path></svg>