<?xml version="1.0" encoding="UTF-8"?>
<svg version="1.1" viewBox="0 0 1600 896" width="1280" height="1280" xmlns="http://www.w3.org/2000/svg">
<path transform="translate(0)" d="m0 0h1600v896h-1600v-896z" fill="#C1DFEC"/>
<path transform="translate(0)" d="m0 0h1600v887l-4-1-2 3-5-1c1.87-4.75 1.87-4.75 3-7 2.32-0.407 4.66-0.744 7-1-1.31-3.12-1.31-3.12-4-5v-19h-7l-1-6-2 3 0.0352-2.89 0.0273-3.8 0.0352-3.76c0.0124-3.38 0.0124-3.38-0.596-5.93-0.527-2.75-0.626-5.25-0.625-8.05-0.00199-1.09-0.00398-2.17-0.00603-3.29 0.00437-1.79 0.00437-1.79 0.00883-3.61-8.54e-4 -1.27-0.00171-2.55-0.00259-3.86-0.00224-3.55 0.00178-7.09 0.00678-10.6 0.00433-3.85 0.00285-7.71 0.00209-11.6-5.34e-4 -6.76 0.00265-13.5 0.00823-20.3 0.00828-10 0.0108-20.1 0.0121-30.1 0.00234-16.9 0.00919-33.8 0.0185-50.7 0.0126-23.1 0.0186-46.2 0.0229-69.3 0.00201-10.8 0.00433-21.5 0.00674-32.3 3.62e-4 -1.61 3.62e-4 -1.61 7.3e-4 -3.26 0.00581-25.6 0.0148-51.3 0.0242-76.9 4.14e-4 -1.12 8.27e-4 -2.24 0.00125-3.4 0.00672-18.2 0.0136-36.4 0.0206-54.6 0.00649-17 0.0129-34.1 0.0192-51.1 4.15e-4 -1.12 8.29e-4 -2.24 0.00126-3.39 0.00945-25.6 0.018-51.1 0.0237-76.7 2.41e-4 -1.07 4.82e-4 -2.15 7.3e-4 -3.26 0.00239-10.7 0.00461-21.5 0.00661-32.2 0.00432-23.1 0.0114-46.1 0.024-69.2 0.00918-16.8 0.0149-33.6 0.0171-50.4 0.00142-9.99 0.00568-20 0.0139-30 0.00525-6.67 0.00689-13.3 0.00557-20-6.42e-4 -3.8 3.14e-4 -7.61 0.0057-11.4 0.00576-4.1 0.00379-8.19 0.00105-12.3 0.00437-1.77 0.00437-1.77 0.00883-3.58-0.0112-6.16-0.137-12.2-1.13-18.3l-2-1.5c-2-1.5-2-1.5-2.48-3.67-0.24-2.28-0.42-4.54-0.516-6.83h2l1-9h-2c-2.25-4.5-2.17-8.08-2-13 1.79-0.944 3.58-1.89 5.37-2.83 1.95-1.16 1.95-1.16 2.63-4.17h3l-0.0625-3.44c0.0625-3.56 0.0625-3.56 1.06-4.56 0.266-2.42 0.469-4.82 0.625-7.25 0.0773-1 0.0773-1 0.156-2.03 0.251-3.76 0.168-7.07-0.781-10.7l-4 1 2 2-10 2v3l5 2v8c-8.57 0.143-8.57 0.143-12-1-0.0977-6.15-0.0977-6.15 0-8l1-1h-2c0.0348 0.603 0.0696 1.21 0.105 1.83 0.255 7.54 0.255 7.54-3.11 11.2-0.705 2.15-0.705 2.15-1 4-3.46 0.495-3.46 0.495-7 1v2h-11v2h2v2h-2v3h7v-4h12l-1 13h-9l-1 4h-12l-1 2h-3v3h-4v2h14v2h6v6c-2.71 1.35-5.01 1.07-8 1l1 5h2c-0.75 6.75-0.75 6.75-3 9l-1-4h-2l-1 5h2v2h-2c1.56e-4 0.632 3.12e-4 1.26 4.73e-4 1.91 0.0169 68.8 0.0327 138 0.0419 206 1.38e-4 1.03 2.76e-4 2.05 4.18e-4 3.11 0.00299 22.3 0.00576 44.7 0.0083 67 0.00125 10.9 0.00254 21.9 0.00387 32.8 1.96e-4 1.63 1.96e-4 1.63 3.96e-4 3.3 0.00426 35.3 0.0118 70.6 0.021 106 0.00943 36.3 0.0156 72.6 0.0176 109 2.88e-4 5.13 6.14e-4 10.3 9.62e-4 15.4 6.74e-5 1.01 1.35e-4 2.02 2.04e-4 3.06 0.00118 16.2 0.00582 32.5 0.0118 48.7 0.00589 16.3 0.00814 32.7 0.00667 49-7.61e-4 9.7 0.00127 19.4 0.0073 29.1 0.00375 6.48 0.00386 13 0.00103 19.4-0.00151 3.69-0.00145 7.38 0.00305 11.1 0.00482 3.98 0.00185 7.97-0.00184 12 0.00263 1.14 0.00525 2.27 0.00796 3.45-0.0138 6.61-0.355 13.1-1.01 19.7-0.116 2.84 0.263 5.11 0.883 7.87 0.0382 2.33 0.0457 4.67 0 7h-2v-4h-2v4h-3v-4h-3v3h-2c-2.86-6.69-3.24-11.9-2-19l-1.88-0.188c-2.12-0.812-2.12-0.812-3.24-3.04-0.898-2.82-1.13-4.96-1.13-7.91-0.00449-1.02-0.00899-2.04-0.0136-3.1 0.00788-1.68 0.00788-1.68 0.0159-3.39-0.00231-1.2-0.00462-2.39-0.00699-3.62-0.00439-3.33 2.17e-4 -6.66 0.00856-9.99 0.00686-3.62 0.00213-7.24-0.00115-10.9-0.00415-6.35-8.54e-4 -12.7 0.00728-19 0.0121-9.44 0.0127-18.9 0.0109-28.3-0.00263-15.9 0.00406-31.8 0.016-47.6 0.0118-15.7 0.0195-31.4 0.0217-47.2 1.37e-4 -0.977 2.75e-4 -1.95 4.17e-4 -2.96 6.77e-4 -4.96 0.00128-9.92 0.00185-14.9 0.0042-35.2 0.0177-70.3 0.0366-105 0.0184-34.2 0.0325-68.3 0.041-102 3.95e-4 -1.58 3.95e-4 -1.58 7.97e-4 -3.19 0.00264-10.6 0.00519-21.1 0.00768-31.7 0.00507-21.5 0.0107-43.1 0.0167-64.6 2.75e-4 -0.99 5.49e-4 -1.98 8.32e-4 -3 0.0184-66.1 0.0501-132 0.0839-198h-3v-3h3v-11h-4v-6h-6v4h-5v2h-2v-2h-2v-4h-2v-3h-2v-6h-1418l1 9h-5v4l-15 1v581h6v-5h4c0.0248 4.61 0.0429 9.22 0.0549 13.8 0.00502 1.57 0.0118 3.13 0.0205 4.7 0.0122 2.26 0.0178 4.51 0.0222 6.77 0.00516 0.696 0.0103 1.39 0.0156 2.11 4.19e-4 3.66-0.242 7.04-1.11 10.6h-3v-24h-6v20h-3c-0.818-6.91-1.14-13.7-1.12-20.7-0.00115-1.03-0.00231-2.06-0.0035-3.13-0.00264-3.45 0.00184-6.9 0.00629-10.3-4.36e-4 -2.5-0.00131-5-0.00259-7.5-0.00177-5.43-4.39e-4 -10.9 0.00364-16.3 0.00605-8.08 0.00633-16.2 0.00546-24.2-0.00131-13.6 0.00202-27.2 0.00802-40.8 0.00592-13.5 0.00977-26.9 0.0109-40.4 1.03e-4 -1.25 1.03e-4 -1.25 2.08e-4 -2.54 3.38e-4 -4.25 6.4e-4 -8.5 9.27e-4 -12.7 0.0021-30.1 0.00884-60.2 0.0183-90.3 0.00919-29.2 0.0163-58.5 0.0205-87.7 1.97e-4 -1.35 1.97e-4 -1.35 3.99e-4 -2.73 0.00132-9.05 0.00259-18.1 0.00384-27.1 0.00254-18.4 0.00536-36.9 0.00835-55.3 2.06e-4 -1.27 2.06e-4 -1.27 4.16e-4 -2.57 0.0092-56.6 0.0251-113 0.0419-170 0.99-0.33 1.98-0.66 3-1h-12l-2 7h-5v6h5c0.00174 1.12 0.00347 2.24 0.00526 3.39 0.0767 49.4 0.155 98.8 0.238 148 0.00127 0.75 0.00254 1.5 0.00385 2.27 0.0277 16.3 0.0555 32.6 0.0836 48.9 0.0138 8 0.0275 16 0.0412 24 0.00136 0.796 0.00273 1.59 0.00413 2.41 0.0441 25.7 0.0851 51.4 0.125 77.2 0.0406 26.5 0.0843 52.9 0.132 79.4 0.00674 3.75 0.0134 7.5 0.0201 11.2 0.00132 0.738 0.00263 1.48 0.00399 2.24 0.021 11.8 0.0387 23.6 0.0552 35.4 0.0167 11.9 0.0369 23.8 0.0605 35.7 0.0126 6.44 0.0238 12.9 0.0308 19.3 0.0265 23.7 0.0665 47.5 0.985 71.2 0.194 5.01 0.253 10 0.212 15h3v11h-3l-0.332 1.72c-1.05 5.1-2.46 9.56-4.67 14.3h-2v10h-4v-5h-3l-1 9h-2v-2h-3v2c-3.71 0.94-6.44 0.975-10.2 0.188l-2.61-0.52c-2.21-0.668-2.21-0.668-4.21-2.67l2-2c2.5 0.375 2.5 0.375 5 1h2c-0.99-0.681-0.99-0.681-2-1.38l-2-1.62v-2h-2v-2h-3l-1 4-2.25-1.44c-2.36-1.34-4.12-2.07-6.75-2.56v-3h-2v-3h-1v-702z" fill="#C3DFED"/>
<path transform="translate(0,709)" d="m0 0c4.76 2.72 8.23 4.82 12.2 8.25 4.55 3.79 9.2 7.34 14 10.8 1.8 1.29 3.6 2.6 5.38 3.92 14.5 10.7 30 20.3 45.9 28.7 2.46 1.39 2.46 1.39 5.29 3.32 3.55 2.31 7.15 4.06 11 5.82 1.51 0.699 3.03 1.4 4.54 2.1 0.77 0.355 1.54 0.709 2.33 1.07 2.25 1.05 4.48 2.12 6.71 3.2 7.68 3.71 15.3 6.98 23.4 9.74 3.08 1.08 6.06 2.29 9.06 3.58 7.6 3.22 15.4 5.89 23.2 8.56 0.891 0.308 1.78 0.616 2.7 0.933 2.81 0.967 5.61 1.92 8.42 2.88 0.876 0.302 1.75 0.604 2.66 0.916 4.76 1.6 9.23 2.58 14.2 3.27 0.99 0.66 1.98 1.32 3 2 2.07 0.559 4.15 1.05 6.25 1.5 3.44 0.756 6.81 1.52 10.2 2.5 4.7 1.32 9.47 2.25 14.3 3.22 3.3 0.781 3.3 0.781 5.61 1.74 3 1.16 5.92 1.83 9.07 2.48 1.23 0.255 2.47 0.51 3.74 0.773 1.92 0.391 1.92 0.391 3.89 0.789 1.25 0.26 2.5 0.521 3.79 0.789 6.05 1.24 12.1 2.38 18.2 3.27 4.48 0.657 8.65 1.68 13 2.94 3.59 0.616 7.2 1.09 10.8 1.56 1.88 0.248 3.76 0.499 5.64 0.754 0.825 0.108 1.65 0.215 2.5 0.326 2.04 0.357 2.04 0.357 4.04 1.36 2.5 0.354 4.99 0.662 7.49 0.938 0.742 0.085 1.48 0.17 2.25 0.258 2.38 0.272 4.76 0.539 7.13 0.805 2.37 0.266 4.74 0.534 7.11 0.805 1.48 0.169 2.95 0.334 4.43 0.498 5.18 0.59 5.18 0.59 7.48 1.2 2.47 0.586 4.84 0.784 7.38 0.965 1.05 0.0768 2.1 0.154 3.19 0.233 1.7 0.119 1.7 0.119 3.43 0.24 1.76 0.127 1.76 0.127 3.55 0.258 3.75 0.272 7.5 0.539 11.3 0.805 3.73 0.267 7.46 0.535 11.2 0.805 2.32 0.168 4.64 0.334 6.97 0.498 4.62 0.332 9.22 0.682 13.8 1.24 4.76 0.554 9.5 0.686 14.3 0.778 0.942 0.0208 1.88 0.0416 2.85 0.063 1.99 0.043 3.99 0.0841 5.98 0.123 2.94 0.0583 5.89 0.124 8.83 0.191 24.3 0.525 48.6 0.357 72.9-0.0657 3.89-0.0665 7.77-0.125 11.7-0.184 2.5-0.0419 4.99-0.0842 7.49-0.127 1.72-0.0251 1.72-0.0251 3.48-0.0506 1.07-0.0199 2.14-0.0399 3.24-0.0604 0.933-0.0155 1.87-0.0311 2.83-0.0471 2.97-0.172 5.81-0.643 8.74-1.16 2.3-0.185 4.6-0.337 6.9-0.465 0.66-0.0376 1.32-0.0751 2-0.114 1.42-0.0805 2.84-0.16 4.26-0.237 2.24-0.123 4.48-0.25 6.73-0.379 3.12-0.179 6.24-0.357 9.37-0.534 6.88-0.391 13.8-0.79 20.6-1.21 1.41-0.0846 2.82-0.168 4.23-0.249 1.96-0.113 3.93-0.232 5.89-0.351 1.67-0.0987 1.67-0.0987 3.38-0.199 2.6-0.106 2.6-0.106 4.62-1.27 3.1-0.312 6.2-0.575 9.31-0.812 10.1-0.829 20.3-1.84 30.4-2.92 1.61-0.173 3.22-0.346 4.84-0.517 8.59-0.913 17.1-1.91 25.7-3.32 3.91-0.585 7.83-0.897 11.8-1.18 2.04-0.0313 2.04-0.0313 3.05-1.25 2.49-0.361 4.96-0.667 7.46-0.938 0.749-0.085 1.5-0.17 2.27-0.258 2.4-0.272 4.8-0.539 7.2-0.805 2.4-0.266 4.8-0.533 7.19-0.805 1.49-0.169 2.99-0.335 4.48-0.498 3.81-0.394 3.81-0.394 7.38-1.7 3.08-0.315 6.16-0.511 9.25-0.719 2.71-0.113 2.71-0.113 4.75-1.28 2.86-0.456 5.71-0.868 8.57-1.25 8.67-1.2 17.3-2.47 26-3.77 2.1-0.317 4.2-0.633 6.3-0.949 5.78-0.87 11.6-1.74 17.3-2.61 16.8-2.54 33.6-4.98 50.5-7.07 6.57-0.82 13.1-1.77 19.6-2.88 3.92-0.652 7.85-1.16 11.8-1.64 0.809-0.1 1.62-0.2 2.45-0.303 2.6-0.321 5.21-0.636 7.81-0.951 0.901-0.109 1.8-0.218 2.73-0.331 16.6-2.01 33.3-3.82 50-5.23 1.16-0.104 2.32-0.209 3.51-0.316 38.4-3.38 78.1-3.53 116 0.316 0.994 0.0983 0.994 0.0983 2.01 0.199 29.5 2.93 59 6.85 88 12.8 5.1 1.03 10.2 2.05 15.3 3 0.884 0.165 1.77 0.33 2.68 0.5 1.8 0.335 3.6 0.669 5.41 1 4.96 0.93 9.74 2.08 14.6 3.5 3.59 0.778 7.19 1.5 10.8 2.22 2.78 0.678 4.69 1.51 7.21 2.78 2.39 0.676 4.77 1.3 7.19 1.88 0.692 0.17 1.38 0.34 2.1 0.515 3.81 0.93 7.62 1.82 11.4 2.69 0.767 0.175 1.53 0.351 2.32 0.532 1.48 0.338 2.97 0.67 4.45 0.995 3.35 0.761 5.61 1.47 8.5 3.4 1.88 0.532 3.78 1.01 5.69 1.44 4.24 0.962 8.19 2.22 12.2 3.78 3.45 1.31 6.95 2.45 10.5 3.6 0.769 0.256 1.54 0.511 2.33 0.775 4.05 1.34 8.1 2.68 12.1 3.99 13.8 4.5 13.8 4.5 19.9 7.42 4.96 2.25 10.1 4.06 15.2 6 5.42 2.09 10.7 4.28 15.8 6.95 2.22 1.08 4.46 2 6.75 2.9 5.37 2.12 10.7 4.37 16 6.66 0.881 0.378 1.76 0.755 2.67 1.14 14.6 6.27 14.6 6.27 21.4 9.67 4.11 1.84 6.96 1.95 11.4 0.688 0.66-0.66 1.32-1.32 2-2 2.38-0.195 2.38-0.195 5.12-0.125 0.91 0.018 1.82 0.0361 2.76 0.0547 0.699 0.0232 1.4 0.0464 2.12 0.0703 2.31 3.98 1.87 6.5 1 11h2c0.33 1.32 0.66 2.64 1 4h-1420v-187z" fill="#FAFCFC"/>
<path transform="translate(1026 741)" d="m0 0c0.753 0.0902 1.51 0.18 2.28 0.273 2.12 0.335 4.15 0.797 6.22 1.35v3c1.17-0.00786 1.17-0.00786 2.35-0.0159 3.51-0.0207 7.01-0.0338 10.5-0.0466 1.83-0.0126 1.83-0.0126 3.71-0.0254 1.75-0.00483 1.75-0.00483 3.54-0.00977 1.62-0.00786 1.62-0.00786 3.27-0.0159 2.61 0.114 2.61 0.114 4.61 1.11v5h51c0.99 1.98 1.98 3.96 3 6 3.34 0.0743 5.8 0.0655 9-1v9c-0.33-1.32-0.66-2.64-1-4h-9v4h-6v6c1.03-0.0174 1.03-0.0174 2.08-0.0352 0.901-0.00902 1.8-0.018 2.73-0.0273 1.34-0.0174 1.34-0.0174 2.71-0.0352 2.48 0.0977 2.48 0.0977 5.48 1.1-0.66 2.31-1.32 4.62-2 7h-2c-0.33-1.32-0.66-2.64-1-4h-18c0.66 1.65 1.32 3.3 2 5h7v-3h6v2c0.904 0.0606 1.81 0.121 2.74 0.184 1.18 0.0838 2.36 0.168 3.57 0.254 1.17 0.0812 2.34 0.162 3.55 0.246 3.14 0.316 3.14 0.316 6.14 1.32v5c-6.5 1.33-12.2 2.26-18.8 1.21-2.41-0.237-4.42 0.0369-6.81 0.41-5.94 0.775-11.3-0.711-17.1-2.13-3.51-0.525-4.42-0.311-7.32 1.5h-3v-2c-1.95-0.591-1.95-0.591-4-1-0.33 0.33-0.66 0.66-1 1h-4c-0.33-0.66-0.66-1.32-1-2-1.9-0.465-1.9-0.465-4.06-0.625-1.3-0.124-2.6-0.247-3.94-0.375v2h4v2c-1.6-0.141-3.21-0.288-4.81-0.438-0.893-0.0812-1.79-0.162-2.71-0.246-2.48-0.316-2.48-0.316-5.48-1.32-0.722 0.165-1.44 0.33-2.19 0.5-3.82 0.679-6.98 0.0843-10.8-0.5 1.32-0.33 2.64-0.66 4-1v-2h-5v-5h-2v3h-6v-6c-1.32-0.33-2.64-0.66-4-1v3h-2v2c-2.81 1.12-2.81 1.12-6 2-0.99-0.66-1.98-1.32-3-2v-2h-7c0.33 0.99 0.66 1.98 1 3 1.87 0.802 1.87 0.802 4.06 1.19 0.733 0.159 1.47 0.317 2.22 0.48 0.849 0.164 0.849 0.164 1.71 0.332v5c-1.52 0.186-1.52 0.186-3.06 0.375-3.92 0.523-3.92 0.523-7.5 1.75-3.62 0.921-5.85 0.751-9.44-0.125v-2c-3.96-0.495-3.96-0.495-8-1v-2h2v-2h-3c-0.33 1.32-0.66 2.64-1 4h-9c-0.33 0.66-0.66 1.32-1 2-2.13 0.411-2.13 0.411-4.91 0.633-0.989 0.0838-1.98 0.168-3 0.254-1.04 0.0786-2.08 0.157-3.15 0.238-1.04 0.0864-2.09 0.173-3.17 0.262-2.59 0.213-5.18 0.417-7.77 0.613-0.66-0.99-1.32-1.98-2-3h-3c-0.33-0.99-0.66-1.98-1-3h-3c0.33 1.32 0.66 2.64 1 4-4.75-1.88-4.75-1.88-7-3v2c-0.66 0.33-1.32 0.66-2 1 0.33 0.66 0.66 1.32 1 2-5.33 1.02-10.7 1.51-16 0-0.66-0.99-1.32-1.98-2-3h2v-3c-0.66-0.33-1.32-0.66-2-1h6v-2c-0.568 0.0232-1.14 0.0464-1.72 0.0703-5.2 0.122-9.35-0.393-14.3-2.07v2h-2v4c-1.12 0.133-2.24 0.266-3.39 0.402-1.47 0.178-2.95 0.357-4.42 0.535-0.738 0.087-1.48 0.174-2.24 0.264-3.12 0.381-5.96 0.803-8.95 1.8 0.66 1.65 1.32 3.3 2 5-4.84 2.55-9.49 2.23-14.8 2.12-0.884-0.00902-1.77-0.018-2.68-0.0273-2.17-0.0235-4.34-0.0593-6.51-0.0977v2c4.46-0.495 4.46-0.495 9-1v4h-14v-2c-2.31-0.99-4.62-1.98-7-3v-3h-3v6c-0.66 0.33-1.32 0.66-2 1v-2c-8.52-2.11-8.52-2.11-17-1-1.54 1.84-1.54 1.84-2 4 0.33 0.66 0.66 1.32 1 2-2.47-0.495-2.47-0.495-5-1 0.33-1.32 0.66-2.64 1-4-0.66 0.33-1.32 0.66-2 1v2c-0.742 0.289-1.48 0.577-2.25 0.875-2.32 0.948-4.53 1.97-6.75 3.12v2c-3 1-3 1-5.19 0.0625-0.897-0.526-0.897-0.526-1.81-1.06-0.33 0.66-0.66 1.32-1 2v-2c-0.99-0.33-1.98-0.66-3-1v-2c-0.99-0.33-1.98-0.66-3-1v-1h-2v2h-12c-0.33 0.66-0.66 1.32-1 2-2.32 1.03-4.65 2.03-7 3-1.48 0.99-1.48 0.99-3 2-0.33-0.99-0.66-1.98-1-3v3c-0.908-0.206-1.82-0.413-2.75-0.625-3.37-0.389-4.53-0.288-7.25 1.62-0.33 0.66-0.66 1.32-1 2 0.66 0.33 1.32 0.66 2 1-1.98 0.66-3.96 1.32-6 2 0.66 1.32 1.32 2.64 2 4-1.13 0.133-2.26 0.266-3.43 0.402-1.48 0.178-2.96 0.357-4.45 0.535-0.746 0.087-1.49 0.174-2.26 0.264-4.06 0.432-4.06 0.432-7.86 1.8-3.08 0.315-6.16 0.511-9.25 0.719-2.71 0.113-2.71 0.113-4.75 1.28-2.9 0.352-5.78 0.66-8.69 0.938-6.32 0.636-12.6 1.3-18.9 2.12-1.21 0.156-2.42 0.312-3.66 0.473-2.62 0.181-2.62 0.181-3.71 1.46-2.92 0.336-5.83 0.62-8.75 0.875-7.08 0.658-14.1 1.49-21.1 2.56-17.1 2.56-34.4 4.17-51.6 5.29-2.52 0.118-2.52 0.118-4.53 1.27-3.02 0.287-6.02 0.522-9.05 0.719-1.38 0.0942-1.38 0.0942-2.79 0.19-1.97 0.133-3.93 0.264-5.9 0.393-2.93 0.192-5.86 0.392-8.78 0.592-10.8 0.726-21.5 1.34-32.3 1.74-0.853 0.0341-1.71 0.0682-2.59 0.103-1.11 0.0407-1.11 0.0407-2.25 0.0822-2.43 0.152-2.43 0.152-5.19 0.684-3.35 0.531-6.54 0.665-9.93 0.719-0.977 0.0173-0.977 0.0173-1.97 0.0349-2.14 0.0365-4.28 0.0663-6.42 0.0955-1.5 0.0232-3.01 0.0466-4.51 0.0702-3.15 0.0484-6.31 0.0933-9.46 0.136-4 0.0545-8.01 0.118-12 0.185-3.11 0.0506-6.22 0.0955-9.33 0.139-1.47 0.0213-2.95 0.0444-4.42 0.0695-24.9 0.414-24.9 0.414-36.1-2.95 0.33-0.99 0.66-1.98 1-3-1.07 0.186-2.14 0.371-3.25 0.562-5.6 0.713-11.2 0.239-16.8-0.562-0.33-0.33-0.66-0.66-1-1-1.46-0.0725-2.92-0.0837-4.38-0.0625-0.791 0.00902-1.58 0.018-2.4 0.0273-0.735 0.0116-1.47 0.0232-2.23 0.0352h-3v1c-1.98 0.194-3.96 0.38-5.94 0.562l-3.34 0.316c-0.898 0.04-1.8 0.0799-2.72 0.121-0.33-0.33-0.66-0.66-1-1-1.52-0.0718-3.04-0.0839-4.56-0.0625-0.826 0.00902-1.65 0.018-2.5 0.0273-0.638 0.0116-1.28 0.0232-1.93 0.0352v-2h-5c0.99-1.98 0.99-1.98 2-4-4.71-0.294-4.71-0.294-9.12 1.06-2.57 1.29-4.17 0.688-6.88-0.0625 0.66-0.33 1.32-0.66 2-1v-2h-5c-0.33-0.99-0.66-1.98-1-3-1.44-0.0271-2.87-0.0465-4.31-0.0625-1.2-0.0174-1.2-0.0174-2.43-0.0352-2.43 0.00108-2.43 0.00108-5.26 1.1-2.01-0.276-4.01-0.602-6-1 0.33 0.99 0.66 1.98 1 3-0.938 3.19-0.938 3.19-2 6l-3-1v2h-2v-3c-1.98-0.99-1.98-0.99-4-2 0.99-0.33 1.98-0.66 3-1-1.98-0.66-3.96-1.32-6-2v-3c-0.33 0.66-0.66 1.32-1 2h-3v2c-5.69 0.2-11.2-0.132-16.9-0.812-1.91-0.226-1.91-0.226-3.87-0.457-3.26-0.73-3.26-0.73-5.2-1.87-1.64-2.9-1.24-5.61-1.05-8.86-2.6 0.143-5.21 0.289-7.81 0.438-0.776 0.0437-1.55 0.0873-2.35 0.132-4.32 0.252-8.6 0.588-12.9 1.06-10.8 1.02-10.8 1.02-14.9-2.19-0.33-0.474-0.66-0.949-1-1.44l2-1v-6c3.88-1.19 6.92-2 11-2v-3h2c0.33-1.98 0.66-3.96 1-6h3v-6h-10v2h-13c-0.33-1.98-0.66-3.96-1-6 3.63-0.66 7.26-1.32 11-2v2h40c0.495 1.98 0.495 1.98 1 4h27c0.33-1.32 0.66-2.64 1-4 1.98-0.33 3.96-0.66 6-1v5h-2v6h6v-5c2.13 3.19 2.5 5.27 3 9h6v-4c1.98-0.66 3.96-1.32 6-2 0.33 0.99 0.66 1.98 1 3 1.12-0.0116 2.24-0.0232 3.39-0.0352 1.47-0.00938 2.95-0.0185 4.42-0.0273 0.738-0.00838 1.48-0.0168 2.24-0.0254 3.25-0.0147 5.85 0.0526 8.95 1.09v3c4.45-0.495 4.45-0.495 9-1v-2h6c0.33 0.99 0.66 1.98 1 3 4.29 0.33 8.58 0.66 13 1v-2h2v2h13c0.33-1.32 0.66-2.64 1-4v4h7v-4h7v4h7v4h-2v6h10v-6h-2c-1.12-5.75-1.12-5.75 0-8h33v4h17v-2h2v2h13v-3h4v-2h7v2c6.93 0.495 6.93 0.495 14 1 0.33-1.32 0.66-2.64 1-4 2.97 0.33 5.94 0.66 9 1v3h6v-3h2v3h7v-3c3.63-0.33 7.26-0.66 11-1v-2h2v2h16v-4c23.2-4.39 23.2-4.39 30-1v2c0.66 0.33 1.32 0.66 2 1-5.81 1.51-11 2.22-17 2v2h-10v6h-5v6h6v6c1.32 0.33 2.64 0.66 4 1-3.47 0.99-3.47 0.99-7 2v3c-1.32 0.33-2.64 0.66-4 1h19c0.33 0.66 0.66 1.32 1 2 3.03 0.658 3.03 0.658 6 1-0.33-0.33-0.66-0.66-1-1-0.66-0.66-1.32-1.32-2-2-0.99-0.33-1.98-0.66-3-1v-2c3.47-0.495 3.47-0.495 7-1v-2c-0.66-0.33-1.32-0.66-2-1-0.33 0.66-0.66 1.32-1 2-0.99-0.99-1.98-1.98-3-3 1-1 1-1 3.94-1.1 1.19 0.0116 2.39 0.0232 3.62 0.0352 1.2 0.00902 2.4 0.018 3.63 0.0273 1.39 0.0174 1.39 0.0174 2.81 0.0352v-8h3c0.33 2.97 0.66 5.94 1 9h9v-6h-4v-10c-0.99-0.33-1.98-0.66-3-1v-3c-1.32-0.33-2.64-0.66-4-1 1.13-0.289 2.27-0.577 3.44-0.875 1.18-0.371 2.35-0.742 3.56-1.12 0.33-0.66 0.66-1.32 1-2h16v-6h5v2h6v-2h8v-10c-1.65-0.33-3.3-0.66-5-1v-2h11c0.33 0.99 0.66 1.98 1 3 2.05 0.62 2.05 0.62 4.44 0.875 2.46 0.469 2.46 0.469 4.56 1.12 2.14 3.25 2 5.05 2 9h6v-4c3.47-1.16 6.36-1.07 10-1v-4c18-0.806 36-1.14 54-1 0.33-1.65 0.66-3.3 1-5h2v-3c2.47-0.495 2.47-0.495 5-1 0.33 1.32 0.66 2.64 1 4h12v-3h9v3h13v-3c4.97 0.412 9.45 0.796 14 3v8c3.3-0.33 6.6-0.66 10-1v-4c6.93 0.33 13.9 0.66 21 1v-2h16v-2h3v-8c2.47-0.495 2.47-0.495 5-1-0.33 2.97-0.66 5.94-1 9h7v-6h3v6h13c0.33-1.32 0.66-2.64 1-4v3h6v-3h4v4c0.557-0.0954 1.11-0.191 1.69-0.289 5.7-0.828 9.81-0.411 15.3 1.29v-5h7v-2h2c-0.144-0.675-0.289-1.35-0.438-2.05-0.186-0.892-0.371-1.78-0.562-2.7-0.186-0.882-0.371-1.76-0.562-2.67-0.438-2.58-0.438-2.58-0.438-6.58h48v-2h9v2h6v-2h5v-3c2.71-1.35 5.01-1.07 8-1v-4c3.03-0.923 5.37-1.02 8.5-0.625z" fill="#C3DFED"/>
<path transform="translate(61,24)" d="m0 0h2v2h3v5c1.02-0.326 2.03-0.652 3.08-0.988 6.47-1.61 13.1-1.26 19.7-1.21 1.42 0.00374 2.85 0.00658 4.27 0.00858 3.72 0.00759 7.44 0.0272 11.2 0.0494 3.81 0.0206 7.62 0.0296 11.4 0.0397 7.45 0.0214 14.9 0.0554 22.4 0.0977 0.33-0.99 0.66-1.98 1-3v3h17v-3h2v3h11v-3h8v3h26v-3h1199v3h34v-3h4v3h10v-3h11v3c1.78-0.00786 1.78-0.00786 3.6-0.0159 4.49-0.0184 8.98-0.0297 13.5-0.0391 1.93-0.00497 3.86-0.0118 5.78-0.0205 10.6-0.0468 21.1 0.0886 31.7 0.846 4.9 0.321 9.77 0.377 14.7 0.354 1.33 0.0058 1.33 0.0058 2.69 0.0117 4.17-0.00625 8.06-0.0768 12.1-1.14v2c0.66 0.33 1.32 0.66 2 1h-5c-0.33 0.99-0.66 1.98-1 3l5 4h-7v-4h-3v-3c-0.623 0.0303-1.25 0.0606-1.89 0.0918-11.7 0.561-23.4 1.09-35.1 0.908v2h-23v6h10v2c-12.8 0.925-25.3 0.995-38.1 0.562-1.75-0.0534-3.5-0.106-5.25-0.158-4.21-0.127-8.42-0.263-12.6-0.404v-3h-6v3c-13.9 0.821-27.7 1.14-41.5 1.13-2.11 0.00105-4.21 0.00253-6.32 0.0044-5.76 0.00387-11.5 0.00158-17.3-0.00178-6.28-0.00255-12.6 7.28e-4 -18.8 0.00324-11 0.00361-22 0.00354-33 9.53e-4 -11.8-0.00276-23.6-0.00333-35.4-0.00126-0.746 1.29e-4 -1.49 2.58e-4 -2.26 3.91e-4 -3.04 5.33e-4 -6.08 0.00108-9.12 0.00165-28.3 0.00528-56.5 0.00565-84.8 0.00285-27.3-0.0027-54.5-0.00375-81.8-0.00248-1.71 7.75e-5 -3.43 1.55e-4 -5.14 2.31e-4 -6.89 3.1e-4 -13.8 6.29e-4 -20.7 9.6e-4 -19.3 9.17e-4 -38.5 0.00149-57.8 0.00179-1.32 2.05e-5 -1.32 2.05e-5 -2.66 4.14e-5 -27.9 4.09e-4 -55.9-7.17e-4 -83.8-0.00289-1.36-1.05e-4 -1.36-1.05e-4 -2.74-2.13e-4 -14.7-0.00114-29.4-0.00236-44.1-0.00359-58.3-0.00485-117-0.00463-175 2.31e-4 -14.7 0.00122-29.3 0.00243-44 0.00357-0.904 7.04e-5 -1.81 1.41e-4 -2.74 2.13e-4 -27.9 0.00216-55.8 0.00307-83.7 0.00264-1.31-2.04e-5 -1.31-2.04e-5 -2.66-4.12e-5 -19.2-3.13e-4 -38.5-9.46e-4 -57.7-0.00187-6.89-3.29e-4 -13.8-6.42e-4 -20.7-9.51e-4 -1.71-7.74e-5 -3.43-1.56e-4 -5.14-2.36e-4 -27.2-0.00127-54.4 1.5e-4 -81.7 0.00285-28.2 0.00277-56.4 0.00172-84.6-0.00353-3.04-5.52e-4 -6.08-0.00109-9.12-0.00161-1.12-1.95e-4 -1.12-1.95e-4 -2.26-3.95e-4 -11.7-0.00196-23.5-6.13e-4 -35.2 0.00216-11.6 0.00267-23.2 0.00159-34.8-0.00301-6.18-0.00236-12.4-0.00324-18.5 4.06e-4 -28.4 0.0156-56.8-0.264-85.3-1.13v-3h-6v3c-7.07 0.852-14 1.13-21.1 1.06-0.956-0.00451-1.91-0.00902-2.9-0.0137-2.33-0.0116-4.65-0.028-6.98-0.0488v-3h6v-6h-18v6h6v2h-10c0.33-2.64 0.66-5.28 1-8h-2v-2h-6c0.0116 0.626 0.0232 1.25 0.0352 1.9 0.00902 0.817 0.018 1.63 0.0273 2.48 0.0116 0.812 0.0232 1.62 0.0352 2.46-0.0977 2.16-0.0977 2.16-1.1 4.16h-3v-3c-2.97 0.33-5.94 0.66-9 1-3-6.75-3-6.75-3-9-1.32-0.66-2.64-1.32-4-2 1.98-0.33 3.96-0.66 6-1 0.33-1.98 0.66-3.96 1-6z" fill="#C1E0EC"/>
<path transform="translate(64,51)" d="m0 0h5c0.33 1.32 0.66 2.64 1 4h3v2h1426v2c-43.1 0.0361-86.2 0.072-129 0.108-0.844 6.99e-4 -1.69 0.0014-2.56 0.00212-90.4 0.0748-181 0.148-271 0.219-2.01 0.00156-4.02 0.00313-6.02 0.00469-42.2 0.0328-84.3 0.0654-126 0.0978-21.2 0.0163-42.3 0.0326-63.5 0.0489-3.19 0.00246-6.39 0.00493-9.58 0.00739-49.2 0.0379-98.4 0.0767-148 0.118-1.59 0.00133-1.59 0.00133-3.2 0.00269-17 0.0143-34.1 0.0287-51.1 0.0431-49.1 0.0415-98.2 0.0824-147 0.12-1.01 7.69e-4 -2.02 0.00154-3.06 0.00233-22.2 0.0169-44.3 0.0335-66.5 0.0498-8.92 0.00658-17.8 0.0132-26.8 0.0198-0.976 7.25e-4 -1.95 0.00145-2.96 0.0022-31.5 0.0234-62.9 0.05-94.4 0.0783-31.7 0.0285-63.4 0.0538-95.1 0.0748-4.38 0.0029-8.76 0.00583-13.1 0.00878-1.29 8.67e-4 -1.29 8.67e-4 -2.6 0.00175-13.6 0.00924-27.2 0.0219-40.8 0.036-13.4 0.0138-26.7 0.0239-40.1 0.0302-7.83 0.00381-15.7 0.0104-23.5 0.0211-5.82 0.00764-11.6 0.00997-17.5 0.0103-2.34 9.33e-4 -4.67 0.00355-7.01 0.0081-33.1 0.0618-33.1 0.0618-44.8-2.11 0.33-2.31 0.66-4.62 1-7z" fill="#C1E0EC"/>
<path transform="translate(69,222)" d="m0 0h4v285c-1.32-0.33-2.64-0.66-4-1v-284z" fill="#C4DFEE"/>
<path transform="translate(736,810)" d="m0 0v1c-1.7 0.464-1.7 0.464-3.44 0.938-3.35 0.692-3.35 0.692-4.56 2.06 2.64 0.33 5.28 0.66 8 1v3h7v2c0.99 0.495 0.99 0.495 2 1-0.843 0.0606-1.69 0.121-2.55 0.184-1.1 0.0838-2.19 0.168-3.32 0.254-1.64 0.122-1.64 0.122-3.3 0.246-2.77 0.146-2.77 0.146-4.82 1.32-2.9 0.352-5.78 0.66-8.69 0.938-6.32 0.636-12.6 1.3-18.9 2.12-1.21 0.156-2.42 0.312-3.66 0.473-2.62 0.181-2.62 0.181-3.71 1.46-2.92 0.336-5.83 0.62-8.75 0.875-7.08 0.658-14.1 1.49-21.1 2.56-19.2 2.88-38.7 4.74-58.1 5.56v-2h-2v-2c-0.66-0.33-1.32-0.66-2-1 2.97-0.33 5.94-0.66 9-1-0.33-0.99-0.66-1.98-1-3h5c-0.66 0.33-1.32 0.66-2 1v2c0.763-0.351 1.53-0.701 2.31-1.06 2.69-0.938 2.69-0.938 5.69 0.0625 0.33-0.66 0.66-1.32 1-2v2c2.63-0.141 5.25-0.287 7.88-0.438 0.746-0.0393 1.49-0.0786 2.26-0.119 4.06-0.159 4.06-0.159 7.86-1.44-0.99-0.66-1.98-1.32-3-2 0.33-0.66 0.66-1.32 1-2 5.28 0.33 10.6 0.66 16 1v2c1.32-0.33 2.64-0.66 4-1-0.495-1.98-0.495-1.98-1-4h3v2c3.63-0.99 7.26-1.98 11-3-0.99-0.99-0.99-0.99-2-2 3.46-2.09 6.43-2.34 10.4-2.56 3.95-0.224 7.7-0.563 11.6-1.44 0.495 2.97 0.495 2.97 1 6 0.33-0.33 0.66-0.66 1-1 2.86-0.0733 5.7-0.0924 8.56-0.0625 0.806 0.00451 1.61 0.00902 2.44 0.0137 2 0.0118 4 0.0298 5.99 0.0488 0.934-3.01 1.04-3.87 0-7h3v-3c7.19-1.44 13.8-1.19 21 0z" fill="#C1DFEC"/>
<path transform="translate(33,510)" d="m0 0h6v132h-6v-132z" fill="#C1E0EC"/>
<path transform="translate(33,105)" d="m0 0h6v110h-6v-110z" fill="#C1E0EC"/>
<path transform="translate(45,47)" d="m0 0c0.33 1.32 0.66 2.64 1 4h3c0.33 0.99 0.66 1.98 1 3 0.99 0.33 1.98 0.66 3 1v2h9v2c-0.905 0.0909-0.905 0.0909-1.83 0.184-0.799 0.0838-1.6 0.168-2.42 0.254-0.789 0.0812-1.58 0.162-2.39 0.246-2.18 0.293-4.24 0.737-6.36 1.32v7h2v4h-12v3h-6v-3h-5c-0.0606-0.999-0.121-2-0.184-3.03-0.0838-1.29-0.168-2.58-0.254-3.91l-0.246-3.9c0.0344-3.02 0.0344-3.02-1.32-4.16-0.0409-2.33-0.0424-4.67 0-7 0.33 0.66 0.66 1.32 1 2h7v7h6v-8h5v-4z" fill="#C1DFEC"/>
<path transform="translate(587,825)" d="m0 0c-0.33 1.32-0.66 2.64-1 4h-4v2c0.722-0.0619 1.44-0.124 2.19-0.188 3.34 0.223 5.08 1.32 7.81 3.19 0.33-0.66 0.66-1.32 1-2v2c0.99 0.33 1.98 0.66 3 1 0.66-0.99 1.32-1.98 2-3 2.14 2.14 2.43 3.13 3 6-19.6 1.91-39.3 2.98-59 4 0.99-1.49 0.99-1.49 2-3 2.79-0.221 5.35-0.281 8.12-0.188 0.754 0.0135 1.51 0.0271 2.29 0.041 1.86 0.0354 3.73 0.0892 5.59 0.146 0.33-0.99 0.66-1.98 1-3h6v-3h2c-0.33-0.66-0.66-1.32-1-2-0.33-0.99-0.66-1.98-1-3 6.8-1.9 12.9-3.41 20-3z" fill="#C1DFEC"/>
<path transform="translate(134,710)" d="m0 0c0.33 1.65 0.66 3.3 1 5 1.98 0.66 3.96 1.32 6 2v2h7c0.879 6.15 0.879 6.15 1 8-1 1-1 1-2.85 1.1-2.05-0.0326-4.1-0.0651-6.15-0.0977-0.66-1.65-1.32-3.3-2-5h-9v-4c-5.28-0.33-10.6-0.66-16-1v-7c6.97-1.33 13.9-1.09 21-1z" fill="#C4DFEE"/>
<path transform="translate(1186,790)" d="m0 0v2c0.675-0.0464 1.35-0.0928 2.05-0.141 7.25-0.293 7.25-0.293 10.6 1.77 1.72 2.97 1.68 5 1.38 8.38h-2v2c-1.77 0.0811-3.54 0.139-5.31 0.188-0.986 0.0348-1.97 0.0696-2.99 0.105-3.22-0.349-3.51-1.1-5.7-3.29-2.96-0.579-2.96-0.579-6.19-0.688-1.09-0.0657-2.17-0.131-3.29-0.199-0.831-0.0374-1.66-0.0748-2.52-0.113-0.172-5.7-0.172-5.7 1.38-8.38 4.03-2.49 8.01-1.94 12.6-1.62z" fill="#C4DFEE"/>
<path transform="translate(1142,784)" d="m0 0c3.04 0.0234 3.04 0.0234 6.62 0.375 1.19 0.111 2.38 0.222 3.6 0.336 0.915 0.0954 1.83 0.191 2.77 0.289v2h6v6h-2v3c-2.6 0.027-5.21 0.0468-7.81 0.0625-0.738 0.00838-1.48 0.0168-2.24 0.0254-3.25 0.0147-5.85-0.0526-8.95-1.09v-2c-0.66-0.33-1.32-0.66-2-1h2c-0.0412-0.949-0.0825-1.9-0.125-2.88 0.125-3.12 0.125-3.12 2.12-5.12z" fill="#C4DFEE"/>
<path transform="translate(86,12)" d="m0 0h32v6h-32v-6z" fill="#C1E0EC"/>
<path transform="translate(527,834)" d="m0 0h5c-0.33 0.99-0.66 1.98-1 3 2.48 0.495 2.48 0.495 5 1-0.625 1.94-0.625 1.94-2 4-3.95 0.893-7.79 1.14-11.8 1.21-1.12 0.0199-2.24 0.0399-3.4 0.0604-1.79 0.0251-1.79 0.0251-3.62 0.0506-1.85 0.0312-1.85 0.0312-3.74 0.063-3.93 0.0652-7.87 0.124-11.8 0.183-2.67 0.0427-5.34 0.0868-8.01 0.131-6.54 0.107-13.1 0.209-19.6 0.307 9.3-4.91 21.7-3.1 31.9-3 2.74 0.0267 5.48 0.0466 8.21 0.0625 1.79 0.0174 1.79 0.0174 3.62 0.0352 2.88-0.0873 5.43-0.428 8.22-1.1-2.97-0.33-5.94-0.66-9-1v-1c0.922-0.0909 0.922-0.0909 1.86-0.184 0.808-0.0838 1.62-0.168 2.45-0.254 1.2-0.122 1.2-0.122 2.43-0.246 2.42-0.269 2.42-0.269 5.26-1.32v-2z" fill="#C1E0EC"/>
<path transform="translate(33,653)" d="m0 0h6v27c-0.99-0.33-1.98-0.66-3-1v-2h-2v3h-3v-3h2v-24z" fill="#C1E0EC"/>
<path transform="translate(14,6)" d="m0 0h2c1.1 4.41 1.08 8.48 1 13 0.454-0.495 0.907-0.99 1.38-1.5 1.62-1.5 1.62-1.5 3.62-1.5-0.375 2.44-0.375 2.44-1 5l-2 1c-0.99-0.33-1.98-0.66-3-1-0.33 0.33-0.66 0.66-1 1-2 0.0408-4 0.0425-6 0v-2h-3v-11h8v-3z" fill="#C1DFEC"/>
<path transform="translate(1571)" d="m0 0h29c-0.33 0.99-0.66 1.98-1 3-0.068 1.73-0.085 3.46-0.0625 5.19 0.00902 0.901 0.018 1.8 0.0273 2.73 0.0116 0.687 0.0232 1.37 0.0352 2.08-1.98 0.99-1.98 0.99-4 2-0.66-1.98-1.32-3.96-2-6h-2v-6c-6.6-0.66-13.2-1.32-20-2v-1z" fill="#C1DFEC"/>
<path transform="translate(397,815)" d="m0 0h6c0.124 0.804 0.248 1.61 0.375 2.44 0.206 0.846 0.413 1.69 0.625 2.56 0.66 0.33 1.32 0.66 2 1v5h6v2c-0.619 0.124-1.24 0.247-1.88 0.375-2.32 0.497-2.32 0.497-4.12 2.62-0.33-0.99-0.66-1.98-1-3-0.66-0.33-1.32-0.66-2-1v-2c-2.97-0.33-5.94-0.66-9-1v-4h3v-5z" fill="#C1E0EC"/>
<path transform="translate(563,768)" d="m0 0c0.33 1.32 0.66 2.64 1 4 0.652-0.0116 1.3-0.0232 1.98-0.0352 4.8-0.0496 9.3 0.041 14 1.04v3h-5v4h-2c-0.33-0.99-0.66-1.98-1-3-0.843 0.0116-1.69 0.0232-2.55 0.0352-1.1 0.00902-2.19 0.018-3.32 0.0273-1.09 0.0116-2.18 0.0232-3.3 0.0352-2.82-0.0977-2.82-0.0977-4.82-1.1v-4h5v-4z" fill="#C4DFEE"/>
<path transform="translate(0)" d="m0 0c0.99 0.33 1.98 0.66 3 1-0.33 0.66-0.66 1.32-1 2 0.285 2.06 0.285 2.06 0.875 4.31 0.191 0.804 0.382 1.61 0.578 2.44 0.18 0.742 0.361 1.48 0.547 2.25 0.722 3.25 1 5.62 1 9 1.32 0.66 2.64 1.32 4 2l-2 2h-5v-3h-2v-22z" fill="#C1DFEC"/>
<path transform="translate(1395,872)" d="m0 0c2.92-0.054 5.83-0.0937 8.75-0.125 0.825-0.0168 1.65-0.0335 2.5-0.0508 0.799-0.00645 1.6-0.0129 2.42-0.0195 0.733-0.0105 1.47-0.0209 2.22-0.0317 3.54 0.382 5.62 1.74 8.11 4.23 1.32 0.697 2.65 1.37 4 2-7.15 2.56-11.9 1.42-19-1v-2h-2v-2c-0.99 0.33-1.98 0.66-3 1-2.19-0.938-2.19-0.938-4-2z" fill="#C3DFED"/>
<path transform="translate(738,781)" d="m0 0h9v5h2v6h-6v-5h-5v-6z" fill="#C1E0EC"/>
<path transform="translate(178,12)" d="m0 0h14v6h-14v-6z" fill="#C1E0EC"/>
<path transform="translate(378,817)" d="m0 0h6v3c2.97 0.495 2.97 0.495 6 1v3c1.32 0.33 2.64 0.66 4 1-5.33 1-9.65 1.01-15 0-1.35-2.71-1.07-5.01-1-8z" fill="#C1E0EC"/>
<path transform="translate(468,808)" d="m0 0h6c0.33 3.96 0.66 7.92 1 12h-7v-12z" fill="#C1E0EC"/>
<path transform="translate(33,90)" d="m0 0h6v12h-6v-12z" fill="#C1E0EC"/>
<path transform="translate(320,807)" d="m0 0h6c-0.33 3.3-0.66 6.6-1 10-2.31-0.33-4.62-0.66-7-1-0.33-1.65-0.66-3.3-1-5h3v-4z" fill="#C1E0EC"/>
<path transform="translate(1144,763)" d="m0 0v4h-2v4c-1.32-0.33-2.64-0.66-4-1v-2h-5v-4c4.07-2.04 6.59-2.03 11-1z" fill="#C4DFEE"/>
<path transform="translate(1167,728)" d="m0 0c0.33 1.32 0.66 2.64 1 4h-16v-3c5.08-0.847 9.85-1.09 15-1z" fill="#C4DFEE"/>
<path transform="translate(802,802)" d="m0 0c0.99 0.33 1.98 0.66 3 1v3h-22c1-2 1-2 2.64-2.62 3.04-0.485 5.96-0.43 9.04-0.375 2.1 0.0374 4.21 0.0469 6.31 0l1-1z" fill="#C4DFEE"/>
<path transform="translate(1021,781)" d="m0 0h7v2h2v3h-3c-0.33 0.66-0.66 1.32-1 2-3.88-0.875-3.88-0.875-5-2-0.0406-1.67-0.0427-3.33 0-5z" fill="#C4DFEE"/>
<path transform="translate(1412,12)" d="m0 0h8v6h-8v-6z" fill="#C1E0EC"/>
<path transform="translate(909,784)" d="m0 0c0.33 0.66 0.66 1.32 1 2h3c-0.33 1.32-0.66 2.64-1 4-1.81 0.688-1.81 0.688-4 1l-3-3c-2.16 0.228-2.16 0.228-4 1 0.33-0.99 0.66-1.98 1-3 3.56-1.19 3.56-1.19 7-2z" fill="#C3DFED"/>
<path transform="translate(377,770)" d="m0 0c6.52-0.369 6.52-0.369 8.94 1.5 0.351 0.495 0.701 0.99 1.06 1.5h-3v2h-8c0.33-1.65 0.66-3.3 1-5z" fill="#C4DFEE"/>
<path transform="translate(1576,26)" d="m0 0h6v7h-6v-7z" fill="#C4DFEE"/>
<path transform="translate(1480,12)" d="m0 0h7v6h-7v-6z" fill="#C1E0EC"/>
<path transform="translate(695,815)" d="m0 0c2.08-0.0271 4.17-0.0464 6.25-0.0625 1.16-0.0116 2.32-0.0232 3.52-0.0352 2.64 0.0798 4.73 0.311 7.23 1.1-0.33 0.99-0.66 1.98-1 3-5.15 0.0904-9.92-0.153-15-1-0.33-0.99-0.66-1.98-1-3z" fill="#C1E0EC"/>
<path transform="translate(1592,881)" d="m0 0c1.32 0.33 2.64 0.66 4 1-0.33 1.98-0.66 3.96-1 6-1.65 0.33-3.3 0.66-5 1 0-3.77 0.235-4.91 2-8z" fill="#FBFDFD"/>
<path transform="translate(1599,890)" d="m0 0h1v6h-11c0.33-1.32 0.66-2.64 1-4 2.31 0.33 4.62 0.66 7 1 0.66-0.99 1.32-1.98 2-3z" fill="#C3DFED"/>
<path transform="translate(409,813)" d="m0 0h6v6h-6v-6z" fill="#C1E0EC"/>
<path transform="translate(725,802)" d="m0 0h6v6h-6v-6z" fill="#C1E0EC"/>
<path transform="translate(806,776)" d="m0 0h6v6h-6v-6z" fill="#C1E0EC"/>
<path transform="translate(793,776)" d="m0 0h6v6h-6v-6z" fill="#C1E0EC"/>
<path transform="translate(1368,35)" d="m0 0h6v6h-6v-6z" fill="#C4DFEE"/>
<path transform="translate(1397,12)" d="m0 0h6v6h-6v-6z" fill="#C1E0EC"/>
<path transform="translate(624,832)" d="m0 0h11v3c-1.26 0.186-2.52 0.371-3.81 0.562-1.06 0.157-1.06 0.157-2.14 0.316-2.04 0.121-2.04 0.121-5.04-0.879v-3z" fill="#C3DFED"/>
<path transform="translate(1065,787)" d="m0 0c1.62-0.027 3.25-0.0464 4.88-0.0625 0.905-0.0116 1.81-0.0232 2.74-0.0352 2.38 0.0977 2.38 0.0977 4.38 1.1-0.33 0.99-0.66 1.98-1 3h-7c-0.33-0.99-0.66-1.98-1-3-0.99-0.33-1.98-0.66-3-1z" fill="#C4DFEE"/>
<path transform="translate(745,816)" d="m0 0h11c0.33 0.99 0.66 1.98 1 3h-11c-0.33-0.99-0.66-1.98-1-3z" fill="#C1E0EC"/>
<path transform="translate(499,837)" d="m0 0c2.06 0.438 2.06 0.438 4 1v2h-16c2-2 2-2 4.13-2.16 1.2 0.0483 1.2 0.0483 2.43 0.0977 1.48 0.0544 2.96 0.0828 4.44 0.0625 0.33-0.33 0.66-0.66 1-1z" fill="#C1E0EC"/>
</svg>
