<svg id="visual" viewBox="0 0 960 540" width="1080" height="540" xmlns="http://www.w3.org/2000/svg" xmlns:xlink="http://www.w3.org/1999/xlink" version="1.1"><rect x="0" y="0" width="960" height="540" fill="#f0ffff"></rect><path d="M0 476L40 479.2C80 482.3 160 488.7 240 490.3C320 492 400 489 480 484.8C560 480.7 640 475.3 720 476.7C800 478 880 486 920 490L960 494L960 541L920 541C880 541 800 541 720 541C640 541 560 541 480 541C400 541 320 541 240 541C160 541 80 541 40 541L0 541Z" fill="#ffffff" stroke-linecap="round" stroke-linejoin="miter"></path></svg>