<svg width="1051" height="443" viewBox="0 0 1051 443" fill="none" xmlns="http://www.w3.org/2000/svg">
<path d="M8.37714 2C7.21047 9.83333 8.07714 29.4 20.8772 45C36.8772 64.5 61.377 81 65.377 106.5C69.0187 129.716 58.3182 166.5 65.377 178.5C72.4358 190.5 87.877 218.5 120.377 203C152.877 187.5 140.877 149.5 138.377 141.5C135.877 133.5 122.377 111 125.377 100C128.377 89 147.377 70.5 170.377 88.5C193.377 106.5 191.377 126.5 218.377 124C245.377 121.5 251.877 113 260.877 106.5C269.877 100 281.377 76 307.377 78C333.377 80 359.877 113 351.877 129.5C343.877 146 322.377 157.5 298.377 166.5C274.377 175.5 233.877 184 245.877 214C257.877 244 281.377 236 289.877 253C298.377 270 318.877 318.5 344.377 308.5C369.877 298.5 399.352 243.977 403.877 239C408.877 233.5 427.877 221 440.377 232C452.877 243 475.254 286.5 489.377 296.5C503.085 308.5 535.6 334.1 556 340.5C581.5 348.5 600.5 352 642 308.5C683.5 265 784.5 263 816 325C847.5 387 853 408 881.5 425C910 442 1019.5 436.5 1045.5 413" stroke="#9FEAFF" stroke-width="15"/>
</svg>
